<svg xmlns="http://www.w3.org/2000/svg" viewBox="0 0 480 400" width="480" height="400">
  <rect width="480" height="400" fill="#f8fafc" stroke="#cbd5e1" stroke-width="2" />

  <rect x="40" y="160" width="140" height="90" rx="8" fill="#e2e8f0" stroke="#475569" stroke-width="2" />
  <text x="110" y="210" text-anchor="middle" font-family="monospace" font-size="16" fill="#1e293b">Arduino</text>

  <rect x="300" y="50" width="120" height="65" rx="6" fill="#dbeafe" stroke="#1d4ed8" stroke-width="2" />
  <text x="360" y="78" text-anchor="middle" font-family="monospace" font-size="13" fill="#1e3a8a">HC-SR04</text>
  <text x="360" y="96" text-anchor="middle" font-family="monospace" font-size="11" fill="#1e3a8a">High Sensor</text>

  <rect x="300" y="290" width="120" height="65" rx="6" fill="#fce7f3" stroke="#be185d" stroke-width="2" />
  <text x="360" y="318" text-anchor="middle" font-family="monospace" font-size="13" fill="#831843">HC-SR04</text>
  <text x="360" y="336" text-anchor="middle" font-family="monospace" font-size="11" fill="#831843">Low Sensor</text>

  <line x1="180" y1="185" x2="300" y2="60" stroke="#dc2626" stroke-width="2" />
  <text x="185" y="145" font-family="monospace" font-size="11" fill="#dc2626">5V -&gt; VCC (high)</text>

  <line x1="180" y1="195" x2="300" y2="75" stroke="#111827" stroke-width="2" />
  <text x="185" y="163" font-family="monospace" font-size="11" fill="#111827">GND -&gt; GND (high)</text>

  <line x1="180" y1="205" x2="300" y2="90" stroke="#16a34a" stroke-width="2" />
  <text x="185" y="181" font-family="monospace" font-size="11" fill="#16a34a">Pin 2 -&gt; Trig (high)</text>

  <line x1="180" y1="215" x2="300" y2="105" stroke="#9333ea" stroke-width="2" />
  <text x="185" y="199" font-family="monospace" font-size="11" fill="#9333ea">Pin 3 -&gt; Echo (high)</text>

  <line x1="180" y1="225" x2="300" y2="300" stroke="#dc2626" stroke-width="2" />
  <text x="185" y="245" font-family="monospace" font-size="11" fill="#dc2626">5V -&gt; VCC (low)</text>

  <line x1="180" y1="232" x2="300" y2="315" stroke="#111827" stroke-width="2" />
  <text x="185" y="263" font-family="monospace" font-size="11" fill="#111827">GND -&gt; GND (low)</text>

  <line x1="180" y1="239" x2="300" y2="330" stroke="#ea580c" stroke-width="2" />
  <text x="185" y="281" font-family="monospace" font-size="11" fill="#ea580c">Pin 4 -&gt; Trig (low)</text>

  <line x1="180" y1="246" x2="300" y2="345" stroke="#2563eb" stroke-width="2" />
  <text x="185" y="299" font-family="monospace" font-size="11" fill="#2563eb">Pin 6 -&gt; Echo (low)</text>

  <text x="240" y="380" text-anchor="middle" font-family="sans-serif" font-size="12" fill="#64748b">
    Placeholder wiring diagram - replace with a real photo or drawing.
  </text>
</svg>
