<svg xmlns="http://www.w3.org/2000/svg" viewBox="0 0 480 380" width="480" height="380">
  <rect width="480" height="380" fill="#f8fafc" stroke="#cbd5e1" stroke-width="2" />

  <rect x="20" y="150" width="130" height="90" rx="8" fill="#e2e8f0" stroke="#475569" stroke-width="2" />
  <text x="85" y="200" text-anchor="middle" font-family="monospace" font-size="16" fill="#1e293b">Arduino</text>

  <rect x="280" y="60" width="90" height="55" rx="6" fill="#fef3c7" stroke="#b45309" stroke-width="2" />
  <text x="325" y="83" text-anchor="middle" font-family="monospace" font-size="11" fill="#78350f">Left Sensor</text>
  <text x="325" y="100" text-anchor="middle" font-family="monospace" font-size="10" fill="#78350f">TCRT5000</text>

  <rect x="380" y="60" width="90" height="55" rx="6" fill="#fef3c7" stroke="#b45309" stroke-width="2" />
  <text x="425" y="83" text-anchor="middle" font-family="monospace" font-size="11" fill="#78350f">Right Sensor</text>
  <text x="425" y="100" text-anchor="middle" font-family="monospace" font-size="10" fill="#78350f">TCRT5000</text>

  <rect x="270" y="140" width="120" height="16" fill="#1f2937" />
  <text x="240" y="180" text-anchor="middle" font-family="monospace" font-size="10" fill="#1f2937">black line</text>
  <line x1="325" y1="115" x2="325" y2="140" stroke="#78350f" stroke-width="1.5" stroke-dasharray="3,2" />

  <line x1="150" y1="170" x2="280" y2="70" stroke="#dc2626" stroke-width="2" />
  <text x="155" y="140" font-family="monospace" font-size="11" fill="#dc2626">5V -&gt; VCC (left)</text>

  <line x1="150" y1="185" x2="280" y2="85" stroke="#111827" stroke-width="2" />
  <text x="155" y="230" font-family="monospace" font-size="11" fill="#111827">GND -&gt; GND (left)</text>

  <line x1="150" y1="200" x2="280" y2="100" stroke="#16a34a" stroke-width="2" />
  <text x="155" y="250" font-family="monospace" font-size="11" fill="#16a34a">Pin 2 -&gt; OUT (left)</text>

  <line x1="150" y1="215" x2="380" y2="75" stroke="#ea580c" stroke-width="2" />
  <text x="155" y="270" font-family="monospace" font-size="11" fill="#ea580c">5V -&gt; VCC (right)</text>

  <line x1="150" y1="225" x2="380" y2="90" stroke="#2563eb" stroke-width="2" />
  <text x="155" y="290" font-family="monospace" font-size="11" fill="#2563eb">GND -&gt; GND (right)</text>

  <line x1="150" y1="235" x2="380" y2="105" stroke="#9333ea" stroke-width="2" />
  <text x="155" y="310" font-family="monospace" font-size="11" fill="#9333ea">Pin 3 -&gt; OUT (right)</text>

  <text x="240" y="360" text-anchor="middle" font-family="sans-serif" font-size="12" fill="#64748b">
    Placeholder wiring diagram - replace with a real photo or drawing.
  </text>
</svg>
