<svg xmlns="http://www.w3.org/2000/svg" viewBox="0 0 520 460" width="520" height="460">
  <rect width="520" height="460" fill="#f8fafc" stroke="#cbd5e1" stroke-width="2" />

  <rect x="20" y="200" width="120" height="90" rx="8" fill="#e2e8f0" stroke="#475569" stroke-width="2" />
  <text x="80" y="250" text-anchor="middle" font-family="monospace" font-size="16" fill="#1e293b">Arduino</text>

  <rect x="330" y="20" width="120" height="60" rx="6" fill="#dbeafe" stroke="#1d4ed8" stroke-width="2" />
  <text x="390" y="46" text-anchor="middle" font-family="monospace" font-size="12" fill="#1e3a8a">HC-SR04</text>
  <text x="390" y="63" text-anchor="middle" font-family="monospace" font-size="11" fill="#1e3a8a">Middle (high)</text>

  <rect x="210" y="350" width="115" height="60" rx="6" fill="#fef3c7" stroke="#b45309" stroke-width="2" />
  <text x="267" y="376" text-anchor="middle" font-family="monospace" font-size="12" fill="#78350f">HC-SR04</text>
  <text x="267" y="393" text-anchor="middle" font-family="monospace" font-size="11" fill="#78350f">Left (low)</text>

  <rect x="380" y="350" width="115" height="60" rx="6" fill="#fce7f3" stroke="#be185d" stroke-width="2" />
  <text x="437" y="376" text-anchor="middle" font-family="monospace" font-size="12" fill="#831843">HC-SR04</text>
  <text x="437" y="393" text-anchor="middle" font-family="monospace" font-size="11" fill="#831843">Right (low)</text>

  <line x1="140" y1="220" x2="330" y2="32" stroke="#dc2626" stroke-width="2" />
  <line x1="140" y1="228" x2="330" y2="45" stroke="#111827" stroke-width="2" />
  <line x1="140" y1="236" x2="330" y2="58" stroke="#16a34a" stroke-width="2" />
  <line x1="140" y1="244" x2="330" y2="71" stroke="#9333ea" stroke-width="2" />

  <line x1="140" y1="252" x2="210" y2="362" stroke="#dc2626" stroke-width="2" />
  <line x1="140" y1="259" x2="210" y2="374" stroke="#111827" stroke-width="2" />
  <line x1="140" y1="266" x2="210" y2="386" stroke="#0d9488" stroke-width="2" />
  <line x1="140" y1="273" x2="210" y2="398" stroke="#4338ca" stroke-width="2" />

  <line x1="20" y1="255" x2="380" y2="365" stroke="#dc2626" stroke-width="2" />
  <line x1="20" y1="261" x2="380" y2="378" stroke="#111827" stroke-width="2" />
  <line x1="20" y1="267" x2="380" y2="391" stroke="#ea580c" stroke-width="2" />
  <line x1="20" y1="273" x2="380" y2="404" stroke="#2563eb" stroke-width="2" />

  <g font-family="monospace" font-size="11">
    <text x="150" y="100" fill="#dc2626">5V -&gt; VCC (mid)</text>
    <text x="150" y="118" fill="#111827">GND -&gt; GND (mid)</text>
    <text x="150" y="136" fill="#16a34a">Pin 9 -&gt; Trig (mid)</text>
    <text x="150" y="154" fill="#9333ea">Pin 10 -&gt; Echo (mid)</text>

    <text x="150" y="180" fill="#dc2626">5V -&gt; VCC (left)</text>
    <text x="150" y="198" fill="#111827">GND -&gt; GND (left)</text>
    <text x="150" y="216" fill="#0d9488">Pin 2 -&gt; Trig (left)</text>
    <text x="150" y="234" fill="#4338ca">Pin 3 -&gt; Echo (left)</text>

    <text x="150" y="264" fill="#dc2626">5V -&gt; VCC (right)</text>
    <text x="150" y="282" fill="#111827">GND -&gt; GND (right)</text>
    <text x="150" y="300" fill="#ea580c">Pin 4 -&gt; Trig (right)</text>
    <text x="150" y="318" fill="#2563eb">Pin 6 -&gt; Echo (right)</text>
  </g>

  <text x="260" y="440" text-anchor="middle" font-family="sans-serif" font-size="12" fill="#64748b">
    Placeholder wiring diagram - replace with a real photo or drawing.
  </text>
</svg>
