<svg xmlns="http://www.w3.org/2000/svg" viewBox="0 0 480 440" width="480" height="440">
  <rect width="480" height="440" fill="#f8fafc" stroke="#cbd5e1" stroke-width="2" />

  <rect x="20" y="180" width="120" height="80" rx="8" fill="#e2e8f0" stroke="#475569" stroke-width="2" />
  <text x="80" y="225" text-anchor="middle" font-family="monospace" font-size="16" fill="#1e293b">Arduino</text>

  <rect x="290" y="30" width="120" height="65" rx="6" fill="#dbeafe" stroke="#1d4ed8" stroke-width="2" />
  <text x="350" y="58" text-anchor="middle" font-family="monospace" font-size="13" fill="#1e3a8a">HC-SR04</text>
  <text x="350" y="76" text-anchor="middle" font-family="monospace" font-size="11" fill="#1e3a8a">Ultrasonic</text>

  <circle cx="350" cy="220" r="30" fill="#fde68a" stroke="#92400e" stroke-width="2" />
  <text x="350" y="225" text-anchor="middle" font-family="monospace" font-size="12" fill="#92400e">Buzzer</text>

  <rect x="290" y="330" width="120" height="55" rx="6" fill="#dcfce7" stroke="#15803d" stroke-width="2" />
  <text x="350" y="353" text-anchor="middle" font-family="monospace" font-size="12" fill="#166534">Potentiometer</text>
  <text x="350" y="369" text-anchor="middle" font-family="monospace" font-size="10" fill="#166534">(pitch knob)</text>

  <line x1="140" y1="205" x2="290" y2="45" stroke="#dc2626" stroke-width="2" />
  <text x="150" y="120" font-family="monospace" font-size="11" fill="#dc2626">5V -&gt; VCC</text>

  <line x1="140" y1="215" x2="290" y2="60" stroke="#111827" stroke-width="2" />
  <text x="150" y="140" font-family="monospace" font-size="11" fill="#111827">GND -&gt; GND</text>

  <line x1="140" y1="225" x2="290" y2="75" stroke="#16a34a" stroke-width="2" />
  <text x="145" y="160" font-family="monospace" font-size="11" fill="#16a34a">Pin 9 -&gt; Trig</text>

  <line x1="140" y1="235" x2="290" y2="88" stroke="#9333ea" stroke-width="2" />
  <text x="143" y="180" font-family="monospace" font-size="11" fill="#9333ea">Pin 10 -&gt; Echo</text>

  <line x1="140" y1="215" x2="322" y2="220" stroke="#ea580c" stroke-width="2" />
  <text x="150" y="252" font-family="monospace" font-size="11" fill="#ea580c">Pin 8 -&gt; Buzzer (+)</text>

  <line x1="140" y1="228" x2="330" y2="248" stroke="#111827" stroke-width="2" />
  <text x="150" y="270" font-family="monospace" font-size="11" fill="#111827">GND -&gt; Buzzer (-)</text>

  <line x1="140" y1="240" x2="310" y2="330" stroke="#dc2626" stroke-width="2" />
  <text x="150" y="300" font-family="monospace" font-size="11" fill="#dc2626">5V -&gt; outer leg</text>

  <line x1="140" y1="245" x2="350" y2="330" stroke="#2563eb" stroke-width="2" />
  <text x="150" y="316" font-family="monospace" font-size="11" fill="#2563eb">A0 -&gt; middle leg (wiper)</text>

  <line x1="140" y1="250" x2="390" y2="330" stroke="#111827" stroke-width="2" />
  <text x="150" y="332" font-family="monospace" font-size="11" fill="#111827">GND -&gt; other outer leg</text>

  <text x="240" y="415" text-anchor="middle" font-family="sans-serif" font-size="12" fill="#64748b">
    Placeholder wiring diagram - replace with a real photo or drawing.
  </text>
</svg>
