<svg xmlns="http://www.w3.org/2000/svg" viewBox="0 0 480 360" width="480" height="360">
  <rect width="480" height="360" fill="#f8fafc" stroke="#cbd5e1" stroke-width="2" />

  <rect x="30" y="150" width="130" height="80" rx="8" fill="#e2e8f0" stroke="#475569" stroke-width="2" />
  <text x="95" y="195" text-anchor="middle" font-family="monospace" font-size="16" fill="#1e293b">Arduino</text>

  <rect x="290" y="80" width="120" height="70" rx="6" fill="#dbeafe" stroke="#1d4ed8" stroke-width="2" />
  <text x="350" y="110" text-anchor="middle" font-family="monospace" font-size="13" fill="#1e3a8a">HC-SR04</text>
  <text x="350" y="128" text-anchor="middle" font-family="monospace" font-size="11" fill="#1e3a8a">Ultrasonic</text>

  <circle cx="350" cy="250" r="30" fill="#fde68a" stroke="#92400e" stroke-width="2" />
  <text x="350" y="255" text-anchor="middle" font-family="monospace" font-size="12" fill="#92400e">Buzzer</text>

  <line x1="160" y1="175" x2="290" y2="95" stroke="#dc2626" stroke-width="2" />
  <text x="205" y="150" font-family="monospace" font-size="11" fill="#dc2626">5V -&gt; VCC</text>

  <line x1="160" y1="188" x2="290" y2="110" stroke="#111827" stroke-width="2" />
  <text x="200" y="200" font-family="monospace" font-size="11" fill="#111827">GND -&gt; GND</text>

  <line x1="160" y1="201" x2="290" y2="125" stroke="#16a34a" stroke-width="2" />
  <text x="197" y="225" font-family="monospace" font-size="11" fill="#16a34a">Pin 9 -&gt; Trig</text>

  <line x1="160" y1="214" x2="290" y2="140" stroke="#9333ea" stroke-width="2" />
  <text x="195" y="245" font-family="monospace" font-size="11" fill="#9333ea">Pin 10 -&gt; Echo</text>

  <line x1="160" y1="222" x2="322" y2="250" stroke="#ea580c" stroke-width="2" />
  <text x="215" y="270" font-family="monospace" font-size="11" fill="#ea580c">Pin 8 -&gt; Buzzer (+)</text>

  <line x1="160" y1="229" x2="330" y2="278" stroke="#111827" stroke-width="2" />
  <text x="215" y="295" font-family="monospace" font-size="11" fill="#111827">GND -&gt; Buzzer (-)</text>

  <text x="240" y="335" text-anchor="middle" font-family="sans-serif" font-size="12" fill="#64748b">
    Placeholder wiring diagram - replace with a real photo or drawing.
  </text>
</svg>
